<svg width="84" height="32" viewBox="0 0 84 32" fill="none" xmlns="http://www.w3.org/2000/svg">
<rect x="0.98822" width="83.0118" height="31.3412" rx="15.6706" fill="#205AF0" fill-opacity="0.4"/>
<path d="M27.5901 10.556H26.4621C26.5101 10.844 26.5461 11.288 26.5461 11.552C26.5461 11.984 26.5221 12.392 26.4981 12.776H24.3861C23.9301 12.776 23.4381 12.752 23.0181 12.704V13.724C23.4381 13.676 23.9301 13.676 24.3981 13.676H26.4141C26.0901 16.148 25.2261 17.648 24.0381 18.728C23.6781 19.076 23.1861 19.412 22.8021 19.616L23.6781 20.324C25.6821 18.944 26.9301 17.12 27.3621 13.676H30.7221C30.7221 14.96 30.5661 17.912 30.1101 18.824C29.9781 19.124 29.7621 19.22 29.4141 19.22C28.9101 19.22 28.2741 19.172 27.6261 19.088L27.7461 20.084C28.3701 20.12 29.0661 20.168 29.6781 20.168C30.3381 20.168 30.7221 19.94 30.9621 19.436C31.5021 18.284 31.6461 14.792 31.6941 13.64C31.6941 13.484 31.7181 13.256 31.7541 13.052L31.0821 12.716C30.8781 12.752 30.6381 12.776 30.3141 12.776H27.4581C27.4821 12.38 27.5061 11.972 27.5181 11.54C27.5301 11.252 27.5541 10.832 27.5901 10.556ZM37.7181 14.804V15.98C38.0901 15.944 38.7261 15.92 39.3861 15.92H45.9741C46.5141 15.92 47.0181 15.968 47.2581 15.98V14.804C46.9941 14.828 46.5621 14.864 45.9621 14.864H39.3861C38.7141 14.864 38.0781 14.828 37.7181 14.804ZM59.3661 11.36L58.7061 11.66C59.1021 12.2 59.4741 12.86 59.7741 13.484L60.4581 13.172C60.1821 12.608 59.6661 11.804 59.3661 11.36ZM60.8181 10.76L60.1581 11.072C60.5661 11.6 60.9501 12.236 61.2741 12.872L61.9461 12.536C61.6581 11.984 61.1301 11.18 60.8181 10.76ZM55.1541 19.1C55.1541 19.544 55.1301 20.132 55.0821 20.516H56.2341C56.1981 20.132 56.1621 19.484 56.1621 19.1V15.152C57.4941 15.572 59.5701 16.364 60.8661 17.072L61.2861 16.052C60.0141 15.416 57.7461 14.564 56.1621 14.072V12.116C56.1621 11.756 56.1981 11.24 56.2461 10.868H55.0581C55.1301 11.24 55.1541 11.78 55.1541 12.116V19.1Z" fill="white"/>
</svg>
