<svg width="84" height="32" viewBox="0 0 84 32" fill="none" xmlns="http://www.w3.org/2000/svg">
<rect x="0.658829" width="83.0118" height="31.3412" rx="15.6706" fill="#205AF0" fill-opacity="0.4"/>
<path d="M16.6784 12.02L15.9464 11.552C15.7184 11.612 15.4904 11.612 15.3104 11.612H9.28635C8.89035 11.612 8.42235 11.576 8.08635 11.54V12.596C8.39835 12.584 8.80635 12.56 9.28635 12.56H15.4184C15.2504 13.712 14.6984 15.38 13.8464 16.472C12.8384 17.756 11.4944 18.776 9.16635 19.364L9.98235 20.264C12.1904 19.568 13.6184 18.452 14.7104 17.048C15.6584 15.812 16.2464 13.88 16.4984 12.62C16.5464 12.392 16.5944 12.188 16.6784 12.02ZM27.6344 19.748L28.2704 20.276C28.3544 20.204 28.4864 20.108 28.6784 20C30.0704 19.316 31.7384 18.08 32.7704 16.676L32.2064 15.86C31.2824 17.216 29.8064 18.308 28.7024 18.812V11.888C28.7024 11.432 28.7384 11.084 28.7504 11H27.6464C27.6584 11.084 27.7184 11.432 27.7184 11.888V19.076C27.7184 19.316 27.6824 19.556 27.6344 19.748ZM22.1384 19.688L23.0384 20.3C24.0464 19.46 24.8144 18.284 25.1744 17C25.4984 15.8 25.5464 13.232 25.5464 11.9C25.5464 11.54 25.5944 11.18 25.6064 11.036H24.5024C24.5504 11.288 24.5864 11.552 24.5864 11.912C24.5864 13.244 24.5744 15.644 24.2264 16.736C23.8664 17.9 23.1464 18.968 22.1384 19.688ZM44.9864 14.492V14.06H46.3064C46.8344 14.06 47.2784 14.084 47.4104 14.096V13.088C47.2424 13.112 46.8344 13.148 46.3064 13.148H44.9864V11.648C44.9864 11.18 45.0344 10.784 45.0464 10.664H43.9664C43.9904 10.784 44.0264 11.18 44.0264 11.648V13.148H40.6064V11.612C40.6064 11.192 40.6544 10.856 40.6664 10.736H39.5984C39.6344 11.012 39.6464 11.36 39.6464 11.612V13.148H38.3504C37.8464 13.148 37.2584 13.088 37.1504 13.064V14.108C37.2944 14.096 37.8344 14.06 38.3504 14.06H39.6464V16.004C39.6464 16.46 39.6104 16.976 39.5984 17.096H40.6544C40.6424 16.976 40.6064 16.448 40.6064 16.004V14.06H44.0264V14.564C44.0264 17.924 42.9344 18.956 40.7504 19.796L41.5544 20.552C44.3024 19.328 44.9864 17.684 44.9864 14.492ZM52.3784 15.668L52.8584 16.604C54.5264 16.088 56.1704 15.368 57.4304 14.648V19.088C57.4304 19.544 57.3944 20.144 57.3584 20.372H58.5344C58.4864 20.132 58.4624 19.544 58.4624 19.088V14.024C59.6864 13.208 60.7904 12.296 61.7024 11.348L60.8984 10.604C60.0704 11.6 58.8704 12.644 57.6224 13.424C56.2904 14.264 54.4544 15.104 52.3784 15.668ZM75.0671 10.232L74.4311 10.508C74.7551 10.976 75.1511 11.684 75.3911 12.164L76.0391 11.876C75.8111 11.408 75.3671 10.676 75.0671 10.232ZM76.4231 9.812L75.7991 10.088C76.1231 10.532 76.5191 11.216 76.7831 11.732L77.4311 11.444C77.2031 11 76.7471 10.256 76.4231 9.812ZM75.3431 12.188L74.7311 11.72C74.5391 11.78 74.2271 11.816 73.8311 11.816H69.1991C68.8391 11.816 68.1551 11.768 67.9871 11.744V12.824C68.1191 12.812 68.7791 12.764 69.1991 12.764H73.8791C73.5791 13.76 72.7031 15.188 71.8871 16.112C70.6511 17.492 68.8751 18.92 66.9431 19.676L67.7111 20.48C69.4871 19.664 71.1071 18.356 72.3911 16.964C73.6151 18.068 74.8871 19.472 75.6911 20.54L76.5311 19.808C75.7511 18.872 74.2871 17.312 73.0271 16.232C73.8791 15.152 74.6351 13.748 75.0431 12.704C75.1151 12.548 75.2711 12.284 75.3431 12.188Z" fill="white"/>
</svg>
