<svg width="84" height="32" viewBox="0 0 84 32" fill="none" xmlns="http://www.w3.org/2000/svg">
<rect width="83.0118" height="31.3412" rx="15.6706" fill="#205AF0" fill-opacity="0.4"/>
<path d="M14.7953 12.764C14.7953 12.32 15.1553 11.948 15.5873 11.948C16.0433 11.948 16.4033 12.32 16.4033 12.764C16.4033 13.208 16.0433 13.568 15.5873 13.568C15.1553 13.568 14.7953 13.208 14.7953 12.764ZM14.2313 12.764C14.2313 13.52 14.8433 14.12 15.5873 14.12C16.3553 14.12 16.9553 13.52 16.9553 12.764C16.9553 12.008 16.3553 11.396 15.5873 11.396C14.8433 11.396 14.2313 12.008 14.2313 12.764ZM11.2193 13.532L11.8313 14.096C12.2753 13.784 12.9593 13.244 13.2353 13.004L13.0073 12.392C12.2993 11.864 10.9673 11.204 10.0433 10.82L9.49129 11.516C10.4153 11.888 11.5433 12.488 12.0593 12.92C11.8793 13.064 11.5433 13.316 11.2193 13.532ZM8.90329 19.256L9.04729 20.252C9.58729 20.36 10.2353 20.444 11.0033 20.444C11.8673 20.444 13.0673 20.108 13.0673 18.632C13.0673 17.552 12.2753 16.496 11.1473 15.308C10.8713 15.008 10.5713 14.684 10.2713 14.384L9.56329 14.996C9.89929 15.284 10.2593 15.632 10.5233 15.908C11.1953 16.64 12.0593 17.72 12.0593 18.536C12.0593 19.304 11.3993 19.532 10.8473 19.532C10.0913 19.532 9.51529 19.436 8.90329 19.256ZM15.8273 19.712L16.7273 19.22C16.3433 18.164 15.4433 16.448 14.6153 15.476L13.8353 15.92C14.6633 16.844 15.4913 18.572 15.8273 19.712ZM9.31129 17.372L8.74729 16.652C8.07529 17.396 6.67129 18.464 5.68729 19.004L6.25129 19.796C7.41529 19.1 8.61529 18.092 9.31129 17.372ZM25.6405 10.604L24.5725 10.544C24.5845 10.88 24.5725 11.156 24.5245 11.54C24.5005 11.756 24.4525 12.02 24.3925 12.332C24.3205 12.332 24.2605 12.332 24.1885 12.332C23.4685 12.332 22.5445 12.236 21.9085 12.128L21.9205 13.064C22.6165 13.136 23.3845 13.184 24.2005 13.184H24.2125C23.9125 14.54 23.4325 16.256 22.8205 17.456L23.7205 17.78C23.8285 17.564 23.9365 17.408 24.0925 17.228C24.8845 16.268 26.2045 15.776 27.6325 15.776C29.0365 15.776 29.7805 16.472 29.7805 17.372C29.7805 19.34 27.0805 19.82 24.3085 19.436L24.5485 20.384C28.1965 20.78 30.7645 19.844 30.7645 17.348C30.7645 15.944 29.6485 14.972 27.7405 14.972C26.4805 14.972 25.4005 15.26 24.3565 15.992C24.6205 15.308 24.8965 14.168 25.1125 13.16C26.6725 13.1 28.5805 12.896 29.9845 12.656L29.9725 11.732C28.4965 12.056 26.7325 12.248 25.2925 12.308C25.3525 12.032 25.3885 11.804 25.4245 11.612C25.4845 11.3 25.5565 10.928 25.6405 10.604ZM36.5125 12.104L36.6205 13.148C37.9165 12.872 40.9765 12.584 42.2605 12.44C41.1565 13.1 40.0165 14.624 40.0165 16.496C40.0165 19.172 42.5485 20.36 44.7685 20.444L45.1165 19.448C43.1605 19.376 40.9765 18.632 40.9765 16.292C40.9765 14.864 42.0205 13.04 43.7245 12.488C44.3365 12.308 45.3925 12.296 46.0765 12.296V11.336C45.2725 11.372 44.1445 11.444 42.8365 11.552C40.6285 11.732 38.3605 11.96 37.5805 12.044C37.3525 12.068 36.9685 12.092 36.5125 12.104ZM44.3485 13.772L43.7365 14.036C44.0965 14.528 44.4445 15.152 44.7205 15.728L45.3325 15.44C45.0805 14.912 44.6245 14.168 44.3485 13.772ZM45.6565 13.268L45.0685 13.544C45.4405 14.048 45.7885 14.636 46.0765 15.224L46.7005 14.924C46.4245 14.396 45.9445 13.664 45.6565 13.268ZM54.0805 11.36C54.0805 11.492 54.0565 11.936 54.0205 12.5C53.3965 12.608 52.6885 12.68 52.2925 12.704C52.0045 12.716 51.7765 12.728 51.5125 12.716L51.6085 13.7C52.3645 13.592 53.4205 13.448 53.9605 13.376C53.9365 13.76 53.9005 14.168 53.8765 14.564C53.2765 15.5 51.8845 17.372 51.2125 18.212L51.8245 19.04C52.4005 18.224 53.1925 17.084 53.7805 16.196C53.7805 16.388 53.7685 16.556 53.7685 16.676C53.7445 17.984 53.7445 18.596 53.7325 19.748C53.7325 19.94 53.7205 20.24 53.6965 20.456H54.7405C54.7165 20.24 54.6925 19.94 54.6805 19.724C54.6205 18.656 54.6325 17.924 54.6325 16.832C54.6325 16.4 54.6445 15.92 54.6685 15.416C55.7725 14.24 57.2245 13.112 58.1965 13.112C58.8085 13.112 59.1685 13.4 59.1685 14.096C59.1685 15.272 58.7125 17.24 58.7125 18.572C58.7125 19.568 59.2525 20.084 60.0445 20.084C60.8605 20.084 61.6165 19.724 62.2525 19.088L62.0965 18.056C61.4845 18.704 60.8605 19.052 60.2845 19.052C59.8525 19.052 59.6605 18.716 59.6605 18.32C59.6605 17.096 60.1045 15.032 60.1045 13.832C60.1045 12.86 59.5525 12.224 58.4365 12.224C57.2245 12.224 55.6765 13.388 54.7405 14.252C54.7645 14.012 54.7765 13.784 54.8005 13.556C54.9805 13.256 55.1845 12.932 55.3405 12.716L54.9925 12.296C54.9685 12.308 54.9445 12.308 54.9205 12.32C55.0045 11.48 55.1005 10.808 55.1605 10.508L54.0325 10.472C54.0805 10.772 54.0805 11.096 54.0805 11.36ZM69.5845 10.592L69.3445 11.504C70.2565 11.756 72.8605 12.284 74.0005 12.44L74.2285 11.516C73.1725 11.42 70.6165 10.916 69.5845 10.592ZM69.3205 12.776L68.3125 12.644C68.2405 13.904 67.9405 16.424 67.7005 17.516L68.5885 17.732C68.6605 17.54 68.7685 17.336 68.9485 17.132C69.7885 16.124 71.0845 15.524 72.6685 15.524C73.8925 15.524 74.7805 16.208 74.7805 17.168C74.7805 18.812 72.9325 19.904 69.1405 19.436L69.4285 20.42C73.8925 20.792 75.7885 19.34 75.7885 17.192C75.7885 15.788 74.5645 14.684 72.7285 14.684C71.2885 14.684 69.9685 15.14 68.8165 16.148C68.9485 15.38 69.1525 13.592 69.3205 12.776Z" fill="white"/>
</svg>
