<svg width="84" height="32" viewBox="0 0 84 32" fill="none" xmlns="http://www.w3.org/2000/svg">
<rect x="0.329414" width="83.0118" height="31.3412" rx="15.6706" fill="#205AF0" fill-opacity="0.4"/>
<path d="M31.8393 12.308H27.2673V9.968H26.3553V12.308H21.9033V13.172H31.8393V12.308ZM25.5153 18.704C25.4193 17.36 24.9753 15.38 24.3393 13.808L23.5113 14.024C24.0993 15.572 24.5553 17.6 24.6153 18.92L25.5153 18.704ZM28.4913 19.52C29.0673 18.008 29.7393 15.752 30.1953 13.928L29.1873 13.736C28.8393 15.5 28.1673 17.984 27.5673 19.52H21.5073V20.396H32.1873V19.52H28.4913ZM40.9113 10.604L39.8433 10.544C39.8553 10.88 39.8433 11.156 39.7953 11.54C39.7713 11.756 39.7233 12.02 39.6633 12.332C39.5913 12.332 39.5313 12.332 39.4593 12.332C38.7393 12.332 37.8153 12.236 37.1793 12.128L37.1913 13.064C37.8873 13.136 38.6553 13.184 39.4713 13.184H39.4833C39.1833 14.54 38.7033 16.256 38.0913 17.456L38.9913 17.78C39.0993 17.564 39.2073 17.408 39.3633 17.228C40.1553 16.268 41.4753 15.776 42.9033 15.776C44.3073 15.776 45.0513 16.472 45.0513 17.372C45.0513 19.34 42.3513 19.82 39.5793 19.436L39.8193 20.384C43.4673 20.78 46.0353 19.844 46.0353 17.348C46.0353 15.944 44.9193 14.972 43.0113 14.972C41.7513 14.972 40.6713 15.26 39.6273 15.992C39.8913 15.308 40.1673 14.168 40.3833 13.16C41.9433 13.1 43.8513 12.896 45.2553 12.656L45.2433 11.732C43.7673 12.056 42.0033 12.248 40.5633 12.308C40.6233 12.032 40.6593 11.804 40.6953 11.612C40.7553 11.3 40.8273 10.928 40.9113 10.604ZM58.3593 10.016C57.7353 11.18 56.4393 12.644 55.1553 13.532C55.3353 13.724 55.5633 14.048 55.6713 14.276C56.9553 13.34 58.1673 11.972 58.8273 10.88C59.5593 11.96 60.8553 13.304 62.0073 14.156C62.1513 13.892 62.3793 13.58 62.5473 13.364C61.3713 12.596 60.0633 11.252 59.2113 10.016H58.3593ZM56.7393 14.48H61.1193V13.7H56.7393V14.48ZM51.9633 16.76C51.8313 17.816 51.5793 18.884 51.1833 19.616C51.3753 19.676 51.7353 19.844 51.8793 19.952C52.2753 19.184 52.5633 18.032 52.7313 16.904L51.9633 16.76ZM54.9873 15.884C55.0833 16.136 55.1553 16.376 55.2033 16.58L55.8753 16.28C55.7193 15.632 55.2393 14.6 54.7473 13.832L54.1233 14.084C54.3273 14.408 54.5193 14.792 54.6873 15.164L52.9113 15.236C53.7033 14.204 54.6153 12.8 55.2993 11.66L54.5433 11.324C54.2313 11.96 53.7993 12.728 53.3313 13.472C53.1393 13.232 52.8993 12.956 52.6353 12.692C53.0793 12.02 53.5833 11.072 53.9913 10.28L53.2113 9.968C52.9593 10.628 52.5393 11.528 52.1313 12.2C52.0113 12.092 51.9033 11.984 51.7833 11.888L51.3273 12.476C51.8793 12.968 52.5033 13.64 52.8753 14.168C52.6113 14.564 52.3353 14.948 52.0833 15.272L51.2913 15.308L51.3633 16.1C51.9153 16.064 52.5633 16.028 53.2473 15.992V20.936H54.0393V15.944L54.9873 15.884ZM54.4353 16.892C54.7473 17.588 55.0473 18.488 55.1673 19.088L55.8513 18.86C55.7313 18.272 55.4073 17.36 55.0833 16.676L54.4353 16.892ZM59.6793 17.852C60.0513 18.308 60.4353 18.86 60.7833 19.388C59.6793 19.472 58.5753 19.544 57.5913 19.616C57.9633 18.764 58.3833 17.6 58.7313 16.616H62.1753V15.824H55.9593V16.616H57.7353C57.4833 17.588 57.0513 18.836 56.6673 19.676L55.4073 19.748L55.5513 20.576C57.0513 20.456 59.1753 20.276 61.2153 20.12C61.3953 20.432 61.5513 20.72 61.6593 20.972L62.4153 20.552C62.0193 19.712 61.1673 18.44 60.3753 17.492L59.6793 17.852Z" fill="white"/>
</svg>
